<svg xmlns="http://www.w3.org/2000/svg" viewBox="0 0 1200 720" font-family="'Segoe UI',Helvetica,Arial,sans-serif">
  <defs>
    <linearGradient id="brand" x1="0" x2="1"><stop offset="0" stop-color="#f97316"/><stop offset="1" stop-color="#fb923c"/></linearGradient>
    <style>
      .h{font-size:18px;font-weight:800;fill:#0f172a}
      .v{font-size:13px;fill:#0f172a}
      .muted{font-size:12px;fill:#64748b}
      .item{font-size:13px;font-weight:600;fill:#0f172a}
    </style>
  </defs>
  <rect width="1200" height="720" fill="#f8fafc"/>
  <rect x="0" y="0" width="1200" height="64" fill="#fff" stroke="#e2e8f0"/>
  <rect x="24" y="16" width="32" height="32" rx="8" fill="url(#brand)"/>
  <text class="h" x="68" y="40">OrangeFlow SL · Procurement Audit</text>
  <text class="muted" x="960" y="40">procurement@orange.sl</text>

  <!-- Site header -->
  <rect x="24" y="88" width="1152" height="72" rx="12" fill="#fff" stroke="#e2e8f0"/>
  <text class="h" x="44" y="120">SL-FT-001 · Tower Hill Hub</text>
  <text class="muted" x="44" y="142">Submitted by Planning · Western Area Urban · Received 2h ago</text>
  <rect x="1000" y="108" width="152" height="32" rx="16" fill="#fef3c7" stroke="#fbbf24"/>
  <text x="1076" y="128" text-anchor="middle" font-size="12" font-weight="700" fill="#92400e">PENDING REVIEW</text>

  <!-- Checklist -->
  <rect x="24" y="180" width="800" height="512" rx="12" fill="#fff" stroke="#e2e8f0"/>
  <text class="h" x="44" y="210" font-size="14">9-Point Compliance Checklist</text>
  <text class="muted" x="720" y="210">6 / 9 verified</text>
  <line x1="44" y1="222" x2="804" y2="222" stroke="#e2e8f0"/>

  <g transform="translate(44,240)">
    <!-- template rows -->
    <!-- row generator -->
    <!-- 1 -->
    <g><rect width="760" height="44" rx="8" fill="#f0fdf4" stroke="#86efac"/>
      <text class="item" x="16" y="28">1. Land Identified</text>
      <text x="360" y="28" font-size="12" fill="#166534">📎 land_survey.pdf</text>
      <rect x="640" y="10" width="52" height="24" rx="12" fill="#22c55e"/><circle cx="678" cy="22" r="9" fill="#fff"/>
      <text x="712" y="28" font-size="11" font-weight="700" fill="#166534">PASS</text>
    </g>
    <g transform="translate(0,52)"><rect width="760" height="44" rx="8" fill="#f0fdf4" stroke="#86efac"/>
      <text class="item" x="16" y="28">2. Ownership Verified</text>
      <text x="360" y="28" font-size="12" fill="#166534">📎 title_deed.pdf</text>
      <rect x="640" y="10" width="52" height="24" rx="12" fill="#22c55e"/><circle cx="678" cy="22" r="9" fill="#fff"/>
      <text x="712" y="28" font-size="11" font-weight="700" fill="#166534">PASS</text>
    </g>
    <g transform="translate(0,104)"><rect width="760" height="44" rx="8" fill="#f0fdf4" stroke="#86efac"/>
      <text class="item" x="16" y="28">3. Acquisition Approved</text>
      <text x="360" y="28" font-size="12" fill="#166534">📎 board_memo.pdf</text>
      <rect x="640" y="10" width="52" height="24" rx="12" fill="#22c55e"/><circle cx="678" cy="22" r="9" fill="#fff"/>
      <text x="712" y="28" font-size="11" font-weight="700" fill="#166534">PASS</text>
    </g>
    <g transform="translate(0,156)"><rect width="760" height="44" rx="8" fill="#f0fdf4" stroke="#86efac"/>
      <text class="item" x="16" y="28">4. Lease Negotiation</text>
      <text x="360" y="28" font-size="12" fill="#166534">📎 lease_terms.pdf</text>
      <rect x="640" y="10" width="52" height="24" rx="12" fill="#22c55e"/><circle cx="678" cy="22" r="9" fill="#fff"/>
      <text x="712" y="28" font-size="11" font-weight="700" fill="#166534">PASS</text>
    </g>
    <g transform="translate(0,208)"><rect width="760" height="44" rx="8" fill="#f0fdf4" stroke="#86efac"/>
      <text class="item" x="16" y="28">5. Lease Signed</text>
      <text x="360" y="28" font-size="12" fill="#166534">📎 lease_executed.pdf</text>
      <rect x="640" y="10" width="52" height="24" rx="12" fill="#22c55e"/><circle cx="678" cy="22" r="9" fill="#fff"/>
      <text x="712" y="28" font-size="11" font-weight="700" fill="#166534">PASS</text>
    </g>
    <g transform="translate(0,260)"><rect width="760" height="44" rx="8" fill="#f0fdf4" stroke="#86efac"/>
      <text class="item" x="16" y="28">6. Lease Registration</text>
      <text x="360" y="28" font-size="12" fill="#166534">📎 registry_receipt.pdf</text>
      <rect x="640" y="10" width="52" height="24" rx="12" fill="#22c55e"/><circle cx="678" cy="22" r="9" fill="#fff"/>
      <text x="712" y="28" font-size="11" font-weight="700" fill="#166534">PASS</text>
    </g>
    <g transform="translate(0,312)"><rect width="760" height="44" rx="8" fill="#fef2f2" stroke="#fecaca"/>
      <text class="item" x="16" y="28">7. Road Access</text>
      <text x="360" y="28" font-size="12" fill="#991b1b">No file attached</text>
      <rect x="640" y="10" width="52" height="24" rx="12" fill="#e2e8f0"/><circle cx="654" cy="22" r="9" fill="#fff"/>
      <text x="712" y="28" font-size="11" font-weight="700" fill="#991b1b">OPEN</text>
    </g>
    <g transform="translate(0,364)"><rect width="760" height="44" rx="8" fill="#fef2f2" stroke="#fecaca"/>
      <text class="item" x="16" y="28">8. Vendor Contract</text>
      <text x="360" y="28" font-size="12" fill="#991b1b">Awaiting HUAWEI signature</text>
      <rect x="640" y="10" width="52" height="24" rx="12" fill="#e2e8f0"/><circle cx="654" cy="22" r="9" fill="#fff"/>
      <text x="712" y="28" font-size="11" font-weight="700" fill="#991b1b">OPEN</text>
    </g>
    <g transform="translate(0,416)"><rect width="760" height="44" rx="8" fill="#fef2f2" stroke="#fecaca"/>
      <text class="item" x="16" y="28">9. Site Handover</text>
      <text x="360" y="28" font-size="12" fill="#991b1b">Pending items 7 &amp; 8</text>
      <rect x="640" y="10" width="52" height="24" rx="12" fill="#e2e8f0"/><circle cx="654" cy="22" r="9" fill="#fff"/>
      <text x="712" y="28" font-size="11" font-weight="700" fill="#991b1b">OPEN</text>
    </g>
  </g>

  <!-- Right panel -->
  <rect x="844" y="180" width="332" height="330" rx="12" fill="#fff" stroke="#e2e8f0"/>
  <text class="h" x="864" y="210" font-size="14">Document Viewer</text>
  <rect x="864" y="226" width="292" height="200" rx="6" fill="#f1f5f9" stroke="#cbd5e1"/>
  <text x="1010" y="322" text-anchor="middle" font-size="36" fill="#94a3b8">📄</text>
  <text x="1010" y="352" text-anchor="middle" class="v" font-weight="700">lease_executed.pdf</text>
  <text x="1010" y="372" text-anchor="middle" class="muted">2.1 MB · signed 12 Mar</text>
  <rect x="864" y="444" width="140" height="34" rx="6" fill="#fff" stroke="#cbd5e1"/>
  <text x="934" y="466" text-anchor="middle" class="v" font-weight="600">⬇ Download</text>
  <rect x="1016" y="444" width="140" height="34" rx="6" fill="#0f172a"/>
  <text x="1086" y="466" text-anchor="middle" font-size="12" font-weight="700" fill="#fff">Open Preview</text>

  <rect x="844" y="528" width="332" height="164" rx="12" fill="#fff" stroke="#e2e8f0"/>
  <text class="h" x="864" y="556" font-size="14">Feedback to Planning</text>
  <rect x="864" y="568" width="292" height="80" rx="6" fill="#f8fafc" stroke="#cbd5e1"/>
  <text x="876" y="590" font-size="11" fill="#64748b">Road access confirmation still</text>
  <text x="876" y="606" font-size="11" fill="#64748b">outstanding — please supply the</text>
  <text x="876" y="622" font-size="11" fill="#64748b">Ministry of Works permit.</text>
  <rect x="1016" y="656" width="140" height="30" rx="6" fill="url(#brand)"/>
  <text x="1086" y="676" text-anchor="middle" font-size="12" font-weight="700" fill="#fff">Send Feedback</text>
</svg>
